<?xml version="1.0" standalone="no"?>
<!DOCTYPE svg PUBLIC "-//W3C//DTD SVG 20010904//EN"
 "http://www.w3.org/TR/2001/REC-SVG-20010904/DTD/svg10.dtd">
<svg version="1.0" xmlns="http://www.w3.org/2000/svg"
 width="100.000000pt" height="100.000000pt" viewBox="0 0 100.000000 100.000000"
 preserveAspectRatio="xMidYMid meet">
<metadata>
Created by potrace 1.14, written by Peter Selinger 2001-2017
</metadata>
<g transform="translate(0.000000,100.000000) scale(0.100000,-0.100000)"
fill="#000000" stroke="none">
<path d="M420 500 l0 -170 30 0 30 0 0 106 c0 58 4 103 8 100 5 -3 26 -50 48
-106 36 -93 41 -101 64 -98 22 3 30 16 65 107 l40 104 3 -106 3 -107 34 0 35
0 0 170 0 170 -43 0 -44 0 -43 -110 c-24 -61 -46 -113 -50 -115 -4 -2 -26 47
-51 110 l-43 115 -43 0 -43 0 0 -170z"/>
<path d="M190 447 c0 -69 3 -87 18 -100 22 -20 73 -22 90 -5 9 9 12 9 12 0 0
-7 13 -12 30 -12 l30 0 0 101 0 100 -27 -3 c-27 -3 -28 -5 -31 -70 -3 -68 -17
-93 -45 -82 -19 7 -27 35 -27 102 0 49 -2 52 -25 52 -25 0 -25 -1 -25 -83z"/>
</g>
</svg>
